<svg xmlns="http://www.w3.org/2000/svg" width="192" height="192" viewBox="0 0 192 192" fill="none">
  <defs>
    <linearGradient id="bg" x1="20" y1="18" x2="176" y2="182" gradientUnits="userSpaceOnUse">
      <stop offset="0" stop-color="#0B2545"/>
      <stop offset="1" stop-color="#123A69"/>
    </linearGradient>
    <linearGradient id="shield" x1="64" y1="54" x2="128" y2="132" gradientUnits="userSpaceOnUse">
      <stop offset="0" stop-color="#67E8F9"/>
      <stop offset="1" stop-color="#14B8A6"/>
    </linearGradient>
  </defs>
  <rect x="8" y="8" width="176" height="176" rx="42" fill="url(#bg)"/>
  <rect x="8" y="8" width="176" height="176" rx="42" stroke="#22D3EE" stroke-opacity="0.35" stroke-width="4"/>
  <path d="M96 44L136 62V89C136 118 119 138 96 148C73 138 56 118 56 89V62L96 44Z" fill="url(#shield)"/>
  <path d="M96 69C84.954 69 76 77.954 76 89V99H72C69.791 99 68 100.791 68 103V126C68 128.209 69.791 130 72 130H120C122.209 130 124 128.209 124 126V103C124 100.791 122.209 99 120 99H116V89C116 77.954 107.046 69 96 69ZM108 99H84V89C84 82.373 89.373 77 96 77C102.627 77 108 82.373 108 89V99Z" fill="#04243A" fill-opacity="0.8"/>
</svg>