<svg xmlns="http://www.w3.org/2000/svg" width="512" height="512" viewBox="0 0 512 512" fill="none">
  <defs>
    <linearGradient id="bg" x1="40" y1="38" x2="470" y2="480" gradientUnits="userSpaceOnUse">
      <stop offset="0" stop-color="#0B2545"/>
      <stop offset="1" stop-color="#123A69"/>
    </linearGradient>
    <linearGradient id="shield" x1="174" y1="130" x2="338" y2="352" gradientUnits="userSpaceOnUse">
      <stop offset="0" stop-color="#67E8F9"/>
      <stop offset="1" stop-color="#14B8A6"/>
    </linearGradient>
  </defs>
  <rect x="20" y="20" width="472" height="472" rx="120" fill="url(#bg)"/>
  <rect x="20" y="20" width="472" height="472" rx="120" stroke="#22D3EE" stroke-opacity="0.35" stroke-width="10"/>
  <path d="M256 112L358 158V225C358 298 314 349 256 376C198 349 154 298 154 225V158L256 112Z" fill="url(#shield)"/>
  <path d="M256 176C227.281 176 204 199.281 204 228V254H194C188.477 254 184 258.477 184 264V324C184 329.523 188.477 334 194 334H318C323.523 334 328 329.523 328 324V264C328 258.477 323.523 254 318 254H308V228C308 199.281 284.719 176 256 176ZM286 254H226V228C226 211.431 239.431 198 256 198C272.569 198 286 211.431 286 228V254Z" fill="#04243A" fill-opacity="0.8"/>
</svg>